<?xml version="1.0" encoding="UTF-8"?>
<svg xmlns="http://www.w3.org/2000/svg" xmlns:xlink="http://www.w3.org/1999/xlink" width="16px" height="16px" viewBox="0 0 16 16" version="1.1">
<g id="surface1">
<path style="fill-rule:nonzero;fill:rgb(72.941178%,72.941178%,72.941178%);fill-opacity:1;stroke-width:1;stroke-linecap:butt;stroke-linejoin:miter;stroke:rgb(89.019608%,89.019608%,89.019608%);stroke-opacity:1;stroke-miterlimit:4;" d="M 455.875 324.875 L 455.875 324.5 C 412.75 359.25 340.75 381.125 255.875 381.125 C 181.75 381.125 117.5 364.375 73.625 337 C 67.375 333.125 61.625 328.875 56.125 324.5 L 56.125 324.75 C 56.125 324.625 56 324.625 55.875 324.5 L 55.875 416.5 C 55.875 469.125 145.625 512 255.875 512 C 366.25 512 455.875 469.125 455.875 416.5 L 455.875 360.125 L 456.125 324.75 C 456 324.75 456 324.75 455.875 324.875 Z M 455.875 324.875 " transform="matrix(0.03125,0,0,0.03125,0,0)"/>
<path style="fill-rule:nonzero;fill:rgb(72.941178%,72.941178%,72.941178%);fill-opacity:1;stroke-width:1;stroke-linecap:butt;stroke-linejoin:miter;stroke:rgb(89.019608%,89.019608%,89.019608%);stroke-opacity:1;stroke-miterlimit:4;" d="M 255.875 340.875 C 366.25 340.875 455.875 298 455.875 245.375 L 455.875 185.25 L 456.125 174.75 C 456 174.75 456 174.875 455.875 174.875 L 455.875 174.625 C 412.75 209.25 340.75 231.25 255.875 231.25 C 181.75 231.25 117.5 214.5 73.75 187.125 C 67.5 183.125 61.625 179 56.125 174.625 L 56.125 174.75 C 56.125 174.75 56 174.625 55.875 174.625 L 55.875 245.375 C 55.875 298 145.625 340.875 255.875 340.875 Z M 255.875 340.875 " transform="matrix(0.03125,0,0,0.03125,0,0)"/>
<path style="fill-rule:nonzero;fill:rgb(72.941178%,72.941178%,72.941178%);fill-opacity:1;stroke-width:1;stroke-linecap:butt;stroke-linejoin:miter;stroke:rgb(89.019608%,89.019608%,89.019608%);stroke-opacity:1;stroke-miterlimit:4;" d="M 255.875 190.875 C 366.25 190.875 455.875 148.125 455.875 95.5 C 455.875 94 455.625 92.5 455.5 91 C 454.625 82.5 451.625 74.125 446.375 66.375 C 420.5 27.875 345 0 255.875 0 C 166.875 0 91.375 27.875 65.5 66.375 C 60.25 74.125 57.25 82.5 56.375 91 C 56.25 92.5 55.875 94 55.875 95.5 C 55.875 148.125 145.625 190.875 255.875 190.875 Z M 255.875 190.875 " transform="matrix(0.03125,0,0,0.03125,0,0)"/>
</g>
</svg>
