<?xml version="1.0" encoding="UTF-8"?>
<svg xmlns="http://www.w3.org/2000/svg" xmlns:xlink="http://www.w3.org/1999/xlink" width="16px" height="16px" viewBox="0 0 16 16" version="1.1">
<g id="surface1">
<path style=" stroke:none;fill-rule:nonzero;fill:rgb(33.333334%,63.137257%,74.901962%);fill-opacity:1;" d="M 13.949219 3 L 9.050781 3 L 8.050781 5 L 2.5 5 L 2.5 13.5 L 15 13.5 L 15 3 Z M 14 5 L 10.101562 5 L 10.601562 4 L 14 4 Z M 14 5 "/>
<path style=" stroke:none;fill-rule:evenodd;fill:rgb(77.64706%,91.37255%,98.039216%);fill-opacity:1;" d="M 11.128906 12.761719 C 9.835938 12.820312 8.546875 12.5625 7.378906 12.003906 L 7.617188 11.628906 C 8.71875 12.121094 9.921875 12.34375 11.128906 12.277344 C 11.128906 12.320312 11.179688 11.511719 11.25 11.070312 L 9.550781 11.070312 C 9.6875 9.40625 10.203125 7.796875 11.066406 6.367188 L 5.964844 6.367188 L 5.964844 14.128906 L 11.324219 14.128906 C 11.230469 13.679688 11.164062 13.222656 11.128906 12.761719 "/>
<path style=" stroke:none;fill-rule:evenodd;fill:rgb(0%,67.843139%,93.333334%);fill-opacity:1;" d="M 11.640625 12.25 C 12.429688 12.199219 13.195312 11.980469 13.882812 11.601562 L 14.179688 11.976562 C 13.394531 12.402344 12.53125 12.660156 11.640625 12.734375 C 11.667969 13.207031 11.742188 13.675781 11.863281 14.132812 L 15.53125 14.132812 L 15.53125 6.371094 L 11.625 6.371094 C 10.8125 7.632812 10.304688 9.066406 10.140625 10.558594 L 11.894531 10.558594 C 11.75 11.113281 11.664062 11.675781 11.640625 12.246094 Z M 8.285156 7.542969 L 8.78125 7.542969 L 8.78125 8.691406 L 8.285156 8.691406 Z M 8.285156 7.542969 "/>
<path style=" stroke:none;fill-rule:evenodd;fill:rgb(13.725491%,12.156863%,12.54902%);fill-opacity:1;" d="M 12.425781 7.542969 L 12.921875 7.542969 L 12.921875 8.691406 L 12.425781 8.691406 Z M 12.425781 7.542969 "/>
<path style=" stroke:none;fill-rule:evenodd;fill:rgb(13.725491%,12.156863%,12.54902%);fill-opacity:1;" d="M 11.640625 12.25 C 12.429688 12.199219 13.195312 11.980469 13.882812 11.601562 L 14.179688 11.976562 C 13.394531 12.402344 12.53125 12.660156 11.640625 12.734375 C 11.683594 13.621094 11.914062 14.488281 12.320312 15.277344 L 11.894531 15.5 C 11.121094 14.277344 10.984375 12.628906 11.25 11.074219 L 9.550781 11.074219 C 9.726562 8.839844 10.597656 6.714844 12.042969 5 L 12.410156 5.316406 C 11.136719 6.792969 10.34375 8.621094 10.140625 10.558594 L 11.894531 10.558594 C 11.75 11.113281 11.664062 11.675781 11.640625 12.246094 Z M 11.640625 12.25 "/>
<path style=" stroke:none;fill-rule:evenodd;fill:rgb(0%,67.843139%,93.333334%);fill-opacity:1;" d="M 11.128906 12.28125 L 11.128906 12.761719 C 9.835938 12.820312 8.546875 12.5625 7.378906 12.003906 L 7.617188 11.628906 C 8.71875 12.121094 9.921875 12.34375 11.128906 12.277344 Z M 11.128906 12.28125 "/>
</g>
</svg>
