<?xml version="1.0" encoding="UTF-8"?>
<svg xmlns="http://www.w3.org/2000/svg" xmlns:xlink="http://www.w3.org/1999/xlink" width="16px" height="16px" viewBox="0 0 16 16" version="1.1">
<g id="surface1">
<path style=" stroke:none;fill-rule:evenodd;fill:rgb(95.294118%,32.549021%,14.509805%);fill-opacity:1;" d="M 1.742188 6.730469 L 1.929688 6.074219 C 2.375 4.539062 2.816406 3.003906 3.261719 1.472656 C 3.277344 1.410156 3.296875 1.363281 3.367188 1.335938 C 4.132812 1.027344 4.917969 0.785156 5.742188 0.695312 C 6.851562 0.574219 7.871094 0.835938 8.8125 1.425781 C 8.9375 1.5 9.054688 1.585938 9.179688 1.65625 C 9.261719 1.703125 9.269531 1.75 9.246094 1.835938 C 8.878906 3.101562 8.511719 4.367188 8.148438 5.632812 C 8.019531 6.074219 7.886719 6.515625 7.765625 6.957031 C 7.738281 7.054688 7.714844 7.074219 7.625 7.011719 C 7.082031 6.640625 6.507812 6.332031 5.867188 6.167969 C 5.058594 5.960938 4.253906 6.003906 3.445312 6.179688 C 2.871094 6.304688 2.320312 6.496094 1.742188 6.730469 "/>
<path style=" stroke:none;fill-rule:evenodd;fill:rgb(50.588238%,73.725492%,2.352941%);fill-opacity:1;" d="M 11.519531 8.683594 C 10.5 8.691406 9.597656 8.332031 8.761719 7.78125 C 8.523438 7.625 8.527344 7.628906 8.601562 7.359375 C 9.078125 5.71875 9.550781 4.082031 10.027344 2.441406 C 10.074219 2.28125 10.039062 2.253906 10.21875 2.371094 C 10.816406 2.773438 11.445312 3.101562 12.15625 3.246094 C 12.910156 3.398438 13.65625 3.347656 14.398438 3.179688 C 14.867188 3.074219 15.320312 2.929688 15.765625 2.757812 C 15.828125 2.734375 15.894531 2.691406 15.960938 2.753906 C 16.023438 2.8125 15.996094 2.878906 15.976562 2.949219 C 15.5 4.589844 15.027344 6.234375 14.550781 7.878906 C 14.53125 7.957031 14.492188 7.992188 14.417969 8.019531 C 13.644531 8.332031 12.851562 8.574219 12.015625 8.65625 C 11.851562 8.671875 11.683594 8.675781 11.519531 8.683594 "/>
<path style=" stroke:none;fill-rule:evenodd;fill:rgb(100%,72.941178%,3.137255%);fill-opacity:1;" d="M 14.25 8.902344 L 13.957031 9.921875 C 13.554688 11.308594 13.152344 12.699219 12.757812 14.085938 C 12.730469 14.1875 12.65625 14.269531 12.558594 14.300781 C 11.875 14.5625 11.179688 14.78125 10.449219 14.882812 C 9.320312 15.042969 8.269531 14.828125 7.296875 14.242188 C 7.132812 14.144531 6.980469 14.035156 6.816406 13.941406 C 6.734375 13.894531 6.730469 13.84375 6.753906 13.757812 C 7.101562 12.5625 7.445312 11.363281 7.792969 10.164062 L 8.214844 8.703125 C 8.261719 8.546875 8.261719 8.546875 8.402344 8.640625 C 8.910156 8.976562 9.4375 9.265625 10.027344 9.433594 C 10.875 9.671875 11.722656 9.632812 12.574219 9.445312 C 13.140625 9.320312 13.6875 9.128906 14.25 8.902344 "/>
<path style=" stroke:none;fill-rule:evenodd;fill:rgb(1.960784%,65.098041%,94.117647%);fill-opacity:1;" d="M 7.453125 8.03125 L 7.207031 8.871094 C 6.792969 10.308594 6.375 11.746094 5.964844 13.183594 C 5.929688 13.308594 5.894531 13.3125 5.796875 13.242188 C 5.226562 12.855469 4.621094 12.535156 3.9375 12.378906 C 3.167969 12.203125 2.398438 12.25 1.632812 12.417969 C 1.152344 12.523438 0.6875 12.675781 0.230469 12.851562 C 0.167969 12.875 0.105469 12.90625 0.0429688 12.855469 C -0.0273438 12.796875 0.00390625 12.730469 0.0234375 12.660156 L 1.445312 7.742188 C 2.355469 7.292969 3.160156 7.046875 4.011719 6.96875 C 5.058594 6.871094 6.027344 7.109375 6.925781 7.652344 C 7.078125 7.746094 7.230469 7.84375 7.382812 7.941406 C 7.421875 7.964844 7.472656 7.988281 7.453125 8.03125 "/>
</g>
</svg>
